<?xml version="1.0" encoding="UTF-8" standalone="no"?>
<!-- Created with Inkscape (http://www.inkscape.org/) -->

<svg
   width="20.98773"
   height="15.999991"
   viewBox="0 0 5.5530036 4.233331"
   version="1.1"
   id="svg5"
   inkscape:version="1.1.2 (0a00cf5339, 2022-02-04)"
   sodipodi:docname="favicon.svg"
   xmlns:inkscape="http://www.inkscape.org/namespaces/inkscape"
   xmlns:sodipodi="http://sodipodi.sourceforge.net/DTD/sodipodi-0.dtd"
   xmlns="http://www.w3.org/2000/svg"
   xmlns:svg="http://www.w3.org/2000/svg">
  <sodipodi:namedview
     id="namedview7"
     pagecolor="#505050"
     bordercolor="#ffffff"
     borderopacity="1"
     inkscape:pageshadow="0"
     inkscape:pageopacity="0"
     inkscape:pagecheckerboard="1"
     inkscape:document-units="mm"
     showgrid="false"
     units="px"
     inkscape:zoom="11.313709"
     inkscape:cx="10.16466"
     inkscape:cy="13.611806"
     inkscape:window-width="1920"
     inkscape:window-height="1012"
     inkscape:window-x="0"
     inkscape:window-y="0"
     inkscape:window-maximized="1"
     inkscape:current-layer="layer1" />
  <defs
     id="defs2" />
  <g
     inkscape:label="Layer 1"
     inkscape:groupmode="layer"
     id="layer1"
     transform="translate(-0.00333113,0.28303512)">
    <path
       d="M 1.8938731,3.950296 1.7159397,3.9280543 Q 1.626973,3.8687432 1.5750758,3.7723626 1.5305924,3.683396 1.493523,3.5944293 H 1.456454 q -0.1260361,0 -0.1631055,0.044483 -0.029656,0.051897 -0.059311,0.096381 -0.029656,0.051897 -0.1482778,0.051897 -0.081553,0 -0.17051951,-0.022242 -0.0889667,-0.014828 -0.17793336,-0.014828 -0.0518972,0 -0.0963806,0.014828 -0.0370694,0.014828 -0.0889667,0.014828 -0.11120835,0 -0.23724447,-0.037069 -0.12603613,-0.037069 -0.2224167,-0.1186222 -0.08896668,-0.081553 -0.08896668,-0.207589 0,-0.1779333 0.14086391,-0.2817278 0.1482778,-0.1112083 0.30396948,-0.13345 l -0.0148278,0.014828 q -0.0815528,0.051897 -0.19276113,0.13345 -0.11120835,0.074139 -0.11120835,0.1927611 0,0.1037945 0.12603613,0.1631056 0.13345001,0.059311 0.22241669,0.059311 l 0.0370695,-0.014828 q 0.0889667,0.022242 0.20758892,0.022242 0.17793336,0 0.37069447,-0.029656 Q 1.293348,3.5128765 1.426798,3.4832209 V 3.4313237 Q 1.360073,3.3349431 1.360073,3.2459765 L 1.441626,3.0458014 1.389729,2.9716624 1.456454,2.8456263 v -0.022242 l -0.059311,-0.00741 -0.037069,0.029656 v -0.00741 L 1.389729,2.7937373 Q 1.3674869,2.6973486 1.4193841,2.5787264 1.4786952,2.4601041 1.5380063,2.3414819 1.6047313,2.2154458 1.6047313,2.1190652 1.6640425,2.067168 1.7381814,1.9188902 1.8197342,1.7631985 1.8938731,1.6000929 1.9680119,1.4369873 2.0124953,1.3554345 2.1533592,1.0737067 2.3312926,0.81422059 2.5092259,0.54732055 2.7094009,0.29524829 2.635262,0.31748996 2.5611231,0.33973163 2.4943981,0.3619733 2.4128453,0.3619733 2.3609481,0.39904275 2.1978425,0.44352609 2.034737,0.48800943 1.8493897,0.53990666 1.6714564,0.58439 1.5380063,0.63628723 q -0.13345,0.0444833 -0.13345,0.0889667 l 0.022242,0.0370695 0.1186222,-0.0815528 0.029656,0.0148278 0.044483,-0.0370695 0.00741,0.0296556 q 0,0.0889667 -0.044483,0.15569169 l -0.029656,-0.066725 -0.066725,0.0444833 0.014828,0.0518972 -0.044483,0.0148278 q 0.037069,0.0222417 0.059311,0.0593111 0.029655,0.0370694 0.051897,0.0741389 -0.1705195,0.00741 -0.3262112,0.1186222 -0.1482778,0.1037945 -0.31879722,0.1260362 -0.0370695,0.051897 -0.0963806,0.066725 -0.0593111,0.014828 -0.11862224,0.014828 -0.0370695,0 -0.11120835,-0.066725 Q 0.52230342,1.2071567 0.4629923,1.125604 0.41109507,1.0366373 0.41109507,0.99956783 q 0,-0.0815528 0.0963806,-0.17051946 0.0963806,-0.0889667 0.1482778,-0.13345002 l -0.0815528,0.1482778 Q 0.66316733,0.78456503 0.82627291,0.71784002 0.98937848,0.65111501 1.159898,0.59180389 1.3378313,0.52507888 1.4786952,0.46576776 1.6195591,0.39904275 1.6714564,0.35455941 1.9605981,0.27300662 2.2571537,0.20628162 2.5611231,0.13214272 2.8576787,0.10248716 2.8947482,0.05800382 2.976301,-0.03096286 q 0.088967,-0.09638057 0.1779333,-0.17051947 0.088967,-0.0815528 0.1482778,-0.0815528 0.13345,0 0.2372445,0.0148278 0.1037945,0.007414 0.1556917,0.1482778 0,0.08155279 -0.066725,0.1482778 -0.059311,0.05931112 -0.1186223,0.09638057 l 0.074139,0.0148278 q 0.059311,-0.0222417 0.096381,-0.0741389 l 0.044483,-0.0074139 h 0.014828 q 0.044483,0 0.074139,0.02224167 0.037069,0.02224167 0.066725,0.05189723 L 3.962349,0.09507329 q 0.1853473,0 0.4522473,0.09638057 0.2669,0.0889667 0.5263862,0.24465836 0.2669,0.15569169 0.4374195,0.35586672 0.1779334,0.19276113 0.1779334,0.40776396 0,0.09638 -0.014828,0.1927611 -0.014828,0.088967 -0.029656,0.1779334 l -0.044483,-0.014828 -0.037069,0.029656 v 0.014828 l 0.059311,0.066725 Q 5.4377124,1.8299235 5.3265041,1.9782013 5.2227096,2.1190652 5.0966735,2.2302736 4.9780512,2.2599291 4.859429,2.3859652 4.7408068,2.5120014 4.6147706,2.5713125 4.5332178,2.6676931 4.4442512,2.7047625 4.3552845,2.741832 4.2737317,2.8678681 l -0.066725,-0.066725 -0.014828,0.022242 0.00741,0.044483 q 0,0.059311 -0.1112083,0.059311 -0.029656,0 -0.059311,0 -0.022242,-0.00741 -0.037069,-0.00741 l -0.037069,0.03707 0.00741,0.059311 q -0.00741,0.00741 -0.074139,0.051897 -0.059311,0.044483 -0.059311,0.00741 H 3.8140705 Q 3.6880344,3.1495959 3.5842399,3.2163209 l -0.051897,-0.037069 -0.037069,0.066725 q -0.00741,-0.014828 -0.029656,-0.044483 -0.022242,-0.037069 -0.051897,-0.044483 l -0.081553,0.088967 h -0.00741 l -0.088967,-0.044483 -0.081553,0.059311 -0.037069,-0.029656 -0.1260361,0.059311 0.00741,0.00741 h 0.051897 l 0.044483,0.044483 v 0.00741 h -0.022242 l -0.1186222,-0.029656 -0.081553,0.029656 -0.044483,-0.00741 Q 2.9021616,3.2830429 2.998542,3.2385595 L 2.954059,3.2163175 2.857678,3.2904565 2.790953,3.2608005 v 0.029656 q -0.066725,0.014828 -0.096381,0.059311 v 0.066725 l -0.029656,0.00741 -0.081553,-0.037069 q -0.037069,0.014828 -0.074139,0.029656 -0.029656,0.014828 -0.059311,0.037069 -0.1482778,0.014828 -0.2891417,0.074139 -0.1408639,0.066725 -0.2965556,0.066725 l -0.059311,-0.029656 -0.00741,0.1853473 0.051897,0.1112083 h 0.00741 l 0.044483,0.066725 v 0.00741 z M 1.8123203,3.3720126 Q 2.4054315,3.1940792 2.9614732,2.942007 3.5249288,2.6825208 4.0661428,2.3859652 l 0.037069,0.00741 0.03707,-0.00741 -0.00741,-0.029655 0.022242,-0.029656 0.037069,0.029656 0.088967,-0.066725 -0.00741,-0.014828 -0.044483,-0.014828 Q 4.25149,2.200618 4.4145956,2.1116513 4.5777012,2.0152707 4.7704623,1.8892346 4.9706374,1.7557846 5.1189152,1.5852651 5.2671929,1.4073318 5.2671929,1.1775012 5.2671929,0.92542893 5.126329,0.76232336 4.9854651,0.59180389 4.7630484,0.48800943 4.5406317,0.38421497 4.2737317,0.33231774 4.0142456,0.28042051 3.7695872,0.25817884 3.5249288,0.23593717 3.3469955,0.23593717 3.2728566,0.31007607 3.2357871,0.39162886 3.2061316,0.46576776 3.1542343,0.51766499 3.1023371,0.56956222 2.976301,0.56956222 L 2.91699,0.62145942 v 0.0741389 Q 2.8057815,0.74749558 2.7538843,0.89577337 2.701987,1.0366373 2.6278481,1.1330179 l -0.014828,0.059311 0.022242,0.022242 -0.1408639,0.2372445 -0.014828,0.059311 -0.029656,-0.022242 q 0,0.044483 -0.059311,0.1853472 -0.059311,0.13345 -0.1408639,0.3039695 Q 2.168187,2.1413069 2.101462,2.2969986 2.0421508,2.4526903 2.0273231,2.534243 1.9754258,2.5861403 1.9309425,2.7640736 1.8864592,2.9345931 1.8568036,3.1125265 1.827148,3.2904598 1.8123203,3.3720126 Z m 1.275189,-0.1705195 q 0.059311,-0.022242 0.1112084,-0.074139 l -0.029656,-0.014828 q -0.029656,0.00741 -0.059311,0.029656 -0.022242,0.014828 -0.051897,0.029656 z"
       id="path5748"
       style="font-size:7.41389px;line-height:1.25;font-family:'Kolker Brush';-inkscape-font-specification:'Kolker Brush';stroke-width:0.185348" />
  </g>
</svg>
